#N canvas 227 -530 970 528 12;
#X obj 298 204 metro;
#X msg 315 54 60000;
#X obj 336 102 /;
#X obj 299 10 t b b b;
#X floatatom 422 122 5 0 0 0 - - -;
#X obj 335 148 i;
#X floatatom 422 167 5 0 0 0 - - -;
#X msg 187 37 0;
#X floatatom 395 51 5 0 0 0 - - -;
#X msg 230 2 bang;
#X msg 403 9 120;
#X obj 403 -24 loadbang;
#X obj 307 243 i;
#X floatatom 196 250 5 0 0 0 - - -;
#X obj 351 243 + 1;
#X msg 409 206 0;
#X obj 299 -23 bng 15 250 50 0 empty empty empty 17 7 0 10 -262144
-1 -1;
#X obj 310 287 bng 15 250 50 0 empty empty empty 17 7 0 10 -262144
-1 -1;
#X connect 0 0 13 0;
#X connect 0 0 12 0;
#X connect 1 0 2 0;
#X connect 2 0 4 0;
#X connect 2 0 5 0;
#X connect 3 0 0 0;
#X connect 3 1 1 0;
#X connect 3 2 8 0;
#X connect 5 0 6 0;
#X connect 5 0 0 1;
#X connect 7 0 0 0;
#X connect 8 0 2 1;
#X connect 9 0 3 0;
#X connect 10 0 8 0;
#X connect 11 0 10 0;
#X connect 12 0 14 0;
#X connect 12 0 17 0;
#X connect 14 0 12 1;
#X connect 15 0 12 1;
#X connect 16 0 3 0;
